# xmcd
#
# Track frame offsets:
#	150
#	15882
#	29072
#	44520
#	57992
#	70737
#	84645
#	97945
#	110975
#	125370
#	138012
#	152185
#	166282
#	181185
#	195182
#	208225
#
# Disc length: 2970 seconds
#
# Revision: 0
# Processed by: cddbd v1.4PL0 Copyright (c) Steve Scherf et al.
# Submitted via: dBpowerAMP V4.0
#
DISCID=d50b9810
DTITLE=Charlie Poole And The North Carolina Ramblers - Old Time Songs From 1925-30
DYEAR=1900
DGENRE=Traditional Country
TTITLE0=White House Blues
TTITLE1=Sweet Sunny South
TTITLE2=Shootin' Creek
TTITLE3=He Rambled
TTITLE4=The Letter That Never Came
TTITLE5=Mountain Reel
TTITLE6=You Ain't Talkin' to Me
TTITLE7=Sweet Sixteen
TTITLE8=Leaving Home
TTITLE9=Took My Gal a Walkin'
TTITLE10=Monkey on a String
TTITLE11=Ramblin' Blues
TTITLE12=Flying Clouds
TTITLE13=Falling By the Wayside
TTITLE14=Don't Let Your Deal Go Down Blues
TTITLE15=Take a Drink on Me
EXTD=hale
EXTT0=
EXTT1=
EXTT2=
EXTT3=
EXTT4=
EXTT5=
EXTT6=
EXTT7=
EXTT8=
EXTT9=
EXTT10=
EXTT11=
EXTT12=
EXTT13=
EXTT14=
EXTT15=
PLAYORDER=
